<svg width="70" height="70" viewBox="0 0 70 70" fill="none" xmlns="http://www.w3.org/2000/svg">
<path d="M61.5096 40.0108L57.7851 34.2708C58.5981 30.426 58.4849 26.4429 57.4547 22.6505C56.4246 18.8581 54.5072 15.3652 51.8606 12.4601C49.2141 9.555 45.9145 7.32115 42.2343 5.94295C38.554 4.56476 34.5987 4.08178 30.6951 4.53391C25.2406 5.18797 20.1548 7.62478 16.2275 11.4659C12.3002 15.307 9.75108 20.3374 8.97609 25.776C8.25158 31.0193 9.23111 36.3566 11.7703 41.001C14.4261 45.8269 15.1596 51.4784 13.8236 56.8224L11.7105 65.272C11.6569 65.487 11.6529 65.7113 11.6989 65.928C11.745 66.1447 11.8398 66.348 11.9761 66.5225C12.1125 66.6971 12.2868 66.8384 12.4859 66.9355C12.6849 67.0327 12.9035 67.0833 13.1251 67.0833H36.4584C36.8036 67.0831 37.1375 66.9605 37.4008 66.7372C37.6641 66.5141 37.8397 66.2046 37.8963 65.8641L39.1242 58.4951L48.3117 59.6429C49.2007 59.7538 50.1031 59.6747 50.9592 59.4104C51.8152 59.1463 52.6052 58.7031 53.2771 58.1104C53.9489 57.5178 54.487 56.789 54.856 55.9727C55.2248 55.1563 55.416 54.2708 55.4167 53.3749V46.197L60.1461 44.3012C60.5461 44.1411 60.9057 43.8945 61.199 43.5787C61.4923 43.2632 61.7121 42.8866 61.8424 42.4759C61.9728 42.0653 62.0106 41.6308 61.953 41.2038C61.8955 40.7768 61.744 40.3679 61.5096 40.0064V40.0108ZM55.4167 29.1666C55.4014 30.6376 55.2378 32.1034 54.9282 33.5416H51.7198C51.7541 33.3001 51.7716 33.0564 51.7723 32.8124C51.7723 31.4587 51.2345 30.1605 50.2774 29.2032C49.3202 28.246 48.0219 27.7083 46.6682 27.7083C45.3144 27.7083 44.0162 28.246 43.0589 29.2032C42.1017 30.1605 41.564 31.4587 41.564 32.8124C41.5647 33.0564 41.5822 33.3001 41.6165 33.5416H36.4584V26.2499C36.4584 25.9791 36.383 25.7136 36.2407 25.4833C36.0982 25.2529 35.8944 25.0667 35.6522 24.9456C35.41 24.8244 35.1389 24.7732 34.8691 24.7974C34.5993 24.8218 34.3418 24.9208 34.125 25.0833C33.8 25.327 33.4137 25.4754 33.009 25.5119C32.6044 25.5485 32.1976 25.4715 31.8343 25.2898C31.4709 25.1082 31.1654 24.8289 30.9517 24.4833C30.7382 24.1377 30.625 23.7396 30.625 23.3333C30.625 22.927 30.7382 22.5289 30.9517 22.1832C31.1654 21.8376 31.4709 21.5583 31.8343 21.3768C32.1976 21.1951 32.6044 21.1181 33.009 21.1547C33.4137 21.1911 33.8 21.3396 34.125 21.5833C34.3418 21.7457 34.5993 21.8448 34.8691 21.8691C35.1389 21.8933 35.41 21.8421 35.6522 21.7209C35.8944 21.5999 36.0982 21.4137 36.2407 21.1833C36.383 20.953 36.4584 20.6874 36.4584 20.4166V7.50599C40.7998 8.0665 44.8684 9.93298 48.125 12.8581C50.4181 14.9116 52.2526 17.4251 53.5091 20.2352C54.7654 23.0453 55.4154 26.0885 55.4167 29.1666ZM11.868 26.1624C12.5527 21.3679 14.8011 16.9334 18.2642 13.5475C21.7273 10.1617 26.2114 8.01384 31.0203 7.43745C31.8575 7.34432 32.6992 7.29806 33.5417 7.29891V18.2816C32.8172 18.1769 32.0787 18.2293 31.3762 18.435C30.6738 18.6409 30.0238 18.9955 29.4705 19.4745C28.917 19.9537 28.4733 20.5463 28.1691 21.212C27.8649 21.8779 27.7074 22.6013 27.7074 23.3333C27.7074 24.0652 27.8649 24.7887 28.1691 25.4544C28.4733 26.1203 28.917 26.7128 29.4705 27.192C30.0238 27.6711 30.6738 28.0256 31.3762 28.2315C32.0787 28.4373 32.8172 28.4897 33.5417 28.3849V33.5416H26.25C25.9792 33.5416 25.7137 33.617 25.4834 33.7593C25.253 33.9018 25.0668 34.1055 24.9457 34.3478C24.8245 34.59 24.7733 34.8611 24.7976 35.1309C24.8219 35.4007 24.9209 35.6582 25.0834 35.8749C25.3271 36.2 25.4755 36.5863 25.512 36.991C25.5486 37.3955 25.4716 37.8024 25.2899 38.1657C25.1083 38.5291 24.8291 38.8346 24.4834 39.0483C24.1378 39.2618 23.7397 39.3749 23.3334 39.3749C22.9271 39.3749 22.529 39.2618 22.1833 39.0483C21.8377 38.8346 21.5584 38.5291 21.3769 38.1657C21.1952 37.8024 21.1182 37.3955 21.1548 36.991C21.1912 36.5863 21.3397 36.2 21.5834 35.8749C21.7458 35.6582 21.8449 35.4007 21.8692 35.1309C21.8934 34.8611 21.8422 34.59 21.721 34.3478C21.6 34.1055 21.4138 33.9018 21.1834 33.7593C20.9531 33.617 20.6875 33.5416 20.4167 33.5416H12.1203C11.6234 31.1133 11.5381 28.6189 11.868 26.1624ZM14.3282 39.5995C13.7761 38.5917 13.3055 37.5412 12.9209 36.4583H18.2817C18.2474 36.6998 18.2298 36.9435 18.2292 37.1874C18.2292 38.5412 18.7669 39.8394 19.7242 40.7967C20.6814 41.7538 21.9796 42.2916 23.3334 42.2916C24.6872 42.2916 25.9854 41.7538 26.9426 40.7967C27.8999 39.8394 28.4375 38.5412 28.4375 37.1874C28.437 36.9435 28.4193 36.6998 28.3851 36.4583H33.5417V43.7499C33.5417 44.0208 33.6171 44.2863 33.7594 44.5166C33.9019 44.747 34.1057 44.9332 34.3479 45.0543C34.5901 45.1755 34.8612 45.2267 35.131 45.2024C35.4008 45.1781 35.6583 45.0791 35.8751 44.9166C36.2001 44.6729 36.5864 44.5245 36.9911 44.488C37.3957 44.4514 37.8025 44.5284 38.1658 44.7101C38.5292 44.8917 38.8347 45.1709 39.0484 45.5166C39.2619 45.8622 39.3751 46.2603 39.3751 46.6666C39.3751 47.0729 39.2619 47.471 39.0484 47.8167C38.8347 48.1623 38.5292 48.4415 38.1658 48.6231C37.8025 48.8048 37.3957 48.8818 36.9911 48.8452C36.5864 48.8088 36.2001 48.6603 35.8751 48.4166C35.6583 48.2542 35.4008 48.1551 35.131 48.1308C34.8612 48.1066 34.5901 48.1578 34.3479 48.2789C34.1057 48.4 33.9019 48.5862 33.7594 48.8166C33.6171 49.0469 33.5417 49.3125 33.5417 49.5833V64.1666H14.9917L16.6513 57.5283C18.1672 51.473 17.3373 45.0684 14.3282 39.5995ZM54.3361 43.4874C53.7932 43.7017 53.3274 44.0747 52.9998 44.5579C52.6723 45.0412 52.498 45.6118 52.5 46.1956V53.3749C52.5002 54.0907 52.2749 54.7884 51.856 55.3688C51.4372 55.949 50.8462 56.3828 50.1667 56.6081C49.6834 56.7669 49.171 56.8168 48.6661 56.7539L38.0946 55.4327C37.7212 55.3861 37.3442 55.4859 37.0424 55.7109C36.7407 55.9359 36.5377 56.2689 36.4759 56.6402L36.4584 56.7554V51.7183C36.6999 51.7525 36.9436 51.7702 37.1876 51.7708C38.5413 51.7708 39.8395 51.2329 40.7968 50.2758C41.754 49.3186 42.2917 48.0204 42.2917 46.6666C42.2917 45.3128 41.754 44.0146 40.7968 43.0574C39.8395 42.1001 38.5413 41.5624 37.1876 41.5624C36.9436 41.563 36.6999 41.5807 36.4584 41.6149V36.4583H43.75C44.0209 36.4583 44.2864 36.3829 44.5167 36.2404C44.7471 36.0981 44.9333 35.8943 45.0544 35.6521C45.1756 35.4099 45.2268 35.1388 45.2026 34.869C45.1782 34.5992 45.0792 34.3417 44.9167 34.1249C44.673 33.7999 44.5246 33.4134 44.4881 33.0089C44.4515 32.6043 44.5285 32.1975 44.7102 31.8342C44.8918 31.4708 45.1711 31.1653 45.5167 30.9516C45.8623 30.7381 46.2604 30.6249 46.6667 30.6249C47.073 30.6249 47.4711 30.7381 47.8168 30.9516C48.1624 31.1653 48.4417 31.4708 48.6232 31.8342C48.8049 32.1975 48.8819 32.6043 48.8453 33.0089C48.8089 33.4134 48.6604 33.7999 48.4167 34.1249C48.2543 34.3417 48.1552 34.5992 48.1309 34.869C48.1067 35.1388 48.1579 35.4099 48.279 35.6521C48.4001 35.8943 48.5863 36.0981 48.8167 36.2404C49.047 36.3829 49.3126 36.4583 49.5834 36.4583H55.7317L59.0625 41.596L54.3361 43.4874Z" fill="#CB0404"/>
</svg>
