<svg width="70" height="70" viewBox="0 0 70 70" fill="none" xmlns="http://www.w3.org/2000/svg">
<g clip-path="url(#clip0_102_192)">
<path d="M41.7473 62.614H36.6833C33.2851 62.614 30.5305 65.3687 30.5305 68.7669H47.9001C47.9001 65.3687 45.1455 62.614 41.7473 62.614Z" fill="#CB0404"/>
<path d="M34.1797 52.634H40.9927V62.614H34.1797V52.634Z" fill="#CB0404"/>
<path d="M59.007 1.50391H65.8984C67.4088 1.50391 68.6328 2.72476 68.6328 4.23027V49.7614C68.6328 51.2669 67.4088 52.4877 65.8984 52.4877H4.10156C2.59125 52.4877 1.36719 51.2669 1.36719 49.7614V4.23027C1.36719 2.72476 2.59125 1.50391 4.10156 1.50391H59.007Z" fill="white"/>
<path d="M68.6328 49.8281V42.6589H17.272V49.8281C17.272 51.2968 18.4629 52.4877 19.9321 52.4877H65.9727C67.4419 52.4877 68.6328 51.2968 68.6328 49.8281Z" fill="#CB0404"/>
<path d="M31.1671 10.9551C29.4672 11.0507 27.3053 11.5864 25.5242 13.3675C23.3506 15.5411 23.0179 18.2947 23.0793 20.0811C24.7894 19.977 26.9635 19.4333 28.7467 17.6501C30.9225 15.4743 31.2402 12.7309 31.1671 10.9551Z" fill="#CB0404"/>
<path d="M12.5696 8.9668C12.4628 10.7303 12.7154 13.6083 14.9792 15.8727C16.5291 17.4225 18.3743 18.0362 19.9535 18.2386C20.0485 16.4639 19.7783 13.5768 17.5187 11.3167C15.9721 9.77055 14.1386 9.1628 12.5696 8.9668Z" fill="#CB0404"/>
<path d="M49.8345 8.95081C47.3074 10.3484 45.5957 13.0406 45.5957 16.1328C45.5957 20.3209 48.7354 23.7741 52.7889 24.2719C55.3161 22.8742 57.0277 20.182 57.0277 17.0898C57.0277 12.9018 53.8885 9.44908 49.8345 8.95081Z" fill="#CB0404"/>
<path d="M48.8246 8.88672V17.0898H52.4818V9.74762C51.3806 9.19754 50.1394 8.88672 48.8246 8.88672Z" fill="white"/>
<path d="M52.4818 9.74762V17.0898H57.0277C57.0277 13.8737 55.1761 11.0918 52.4818 9.74762Z" fill="#CB0404"/>
<path d="M68.6328 19.0776C68.2734 19.0776 67.9204 19.224 67.6662 19.4782C67.412 19.7324 67.2656 20.0854 67.2656 20.4448C67.2656 20.8048 67.412 21.1573 67.6662 21.4115C67.9204 21.6657 68.2734 21.812 68.6328 21.812C68.9922 21.812 69.3452 21.6657 69.5995 21.4115C69.8537 21.1573 70 20.8048 70 20.4448C70 20.0854 69.8537 19.7324 69.5995 19.4782C69.3452 19.224 68.9922 19.0776 68.6328 19.0776Z" fill="#CB0404"/>
<path d="M65.8984 0.136719H4.10156C1.83983 0.136719 0 1.97334 0 4.23027V49.7614C0 52.0183 1.83983 53.8549 4.10156 53.8549H27.6402V61.274C23.7789 61.5865 20.7321 64.8266 20.7321 68.7663C20.7321 69.5215 21.3441 70.1335 22.0993 70.1335H47.9002C48.6553 70.1335 49.2673 69.5215 49.2673 68.7663C49.2673 64.8266 46.2206 61.5865 42.3598 61.274V53.8549H65.8984C68.1602 53.8549 70 52.0183 70 49.7614V26.1592C70 25.4046 69.388 24.792 68.6328 24.792C67.8777 24.792 67.2656 25.4046 67.2656 26.1592V41.2917H2.73438V4.23027C2.73438 3.48099 3.34747 2.87109 4.10156 2.87109H65.8984C66.6525 2.87109 67.2656 3.48099 67.2656 4.23027V13.3936C67.2656 14.1488 67.8777 14.7608 68.6328 14.7608C69.388 14.7608 70 14.1488 70 13.3936V4.23027C70 1.97334 68.1602 0.136719 65.8984 0.136719V0.136719ZM46.3338 67.3997H23.6657C24.2553 65.4253 26.0882 63.9812 28.2522 63.9812H41.7473C43.9113 63.9812 45.7442 65.4247 46.3338 67.3997ZM30.3745 61.2468V54.0012H39.6255V61.2468H30.3745ZM67.2656 44.0261V49.7614C67.2656 50.5106 66.6525 51.1205 65.8984 51.1205H4.10156C3.34747 51.1205 2.73438 50.5106 2.73438 49.7614V44.0261H67.2656Z" fill="#CB0404"/>
<path d="M32.021 30.8589C32.7762 30.8589 33.3882 30.2464 33.3882 29.4917V25.6049C33.3882 24.8502 32.7762 24.2377 32.021 24.2377H28.1342C27.379 24.2377 26.767 24.8502 26.767 25.6049C26.767 26.36 27.379 26.972 28.1342 26.972H28.72L22.5693 33.1228L17.5208 28.0749C16.9868 27.5408 16.1211 27.5408 15.5875 28.0749L7.78336 35.8791C7.2493 36.4126 7.2493 37.2783 7.78336 37.8123C8.05038 38.0794 8.40019 38.2129 8.75 38.2129C9.09981 38.2129 9.44962 38.0794 9.71664 37.8123L16.5542 30.9748L21.6026 36.0233C21.859 36.2796 22.2066 36.4238 22.5693 36.4238C22.9319 36.4238 23.2796 36.2796 23.5359 36.0233L30.6538 28.9059V29.4917C30.6538 30.2469 31.2659 30.8589 32.021 30.8589Z" fill="#CB0404"/>
<path d="M50.9048 30.8301C50.9048 30.0749 50.2927 29.4629 49.5376 29.4629H40.4688C39.7136 29.4629 39.1016 30.0749 39.1016 30.8301C39.1016 31.5852 39.7136 32.1973 40.4688 32.1973H49.5376C50.2927 32.1973 50.9048 31.5852 50.9048 30.8301Z" fill="#CB0404"/>
<path d="M61.25 29.4629H56.1914C55.4362 29.4629 54.8242 30.0749 54.8242 30.8301C54.8242 31.5852 55.4362 32.1973 56.1914 32.1973H61.25C62.0052 32.1973 62.6172 31.5852 62.6172 30.8301C62.6172 30.0749 62.0052 29.4629 61.25 29.4629Z" fill="#CB0404"/>
</g>
<defs>
<clipPath id="clip0_102_192">
<rect width="70" height="70" fill="white"/>
</clipPath>
</defs>
</svg>
