<svg width="70" height="70" viewBox="0 0 70 70" fill="none" xmlns="http://www.w3.org/2000/svg">
<path d="M44.1512 15.6916C40.0517 15.7344 36.027 16.7947 32.4386 18.7772C28.8501 20.7598 25.8102 23.6025 23.5919 27.0503C21.3735 30.498 20.0462 34.4427 19.7292 38.5301C19.4121 42.6176 20.1152 46.7198 21.7753 50.4683C22.1452 51.3116 22.6927 52.0652 23.3804 52.6777C24.0681 53.2901 24.8798 53.7471 25.7602 54.0173C26.6405 54.2875 27.5688 54.3646 28.4816 54.2434C29.3945 54.1222 30.2705 53.8056 31.0499 53.315C35.0342 50.7652 39.6655 49.4101 44.3959 49.4101C49.1263 49.4101 53.7577 50.7652 57.742 53.315C58.5223 53.8057 59.3993 54.1222 60.3131 54.243C61.2269 54.3637 62.156 54.2858 63.0369 54.0146C63.9178 53.7433 64.7299 53.2852 65.4175 52.6714C66.1052 52.0576 66.6523 51.3027 67.0215 50.4581C68.6965 46.6718 69.395 42.5258 69.053 38.3996C68.7111 34.2735 67.3397 30.299 65.0643 26.8401C62.7889 23.3811 59.6822 20.5481 56.0286 18.6005C52.3751 16.6528 48.2913 15.6527 44.1512 15.6916ZM27.9606 45.2007C27.0869 45.2007 26.2328 44.9416 25.5064 44.4562C24.7799 43.9708 24.2137 43.2808 23.8793 42.4736C23.545 41.6664 23.4575 40.7782 23.628 39.9213C23.7984 39.0644 24.2191 38.2772 24.837 37.6594C25.4548 37.0416 26.2419 36.6209 27.0988 36.4504C27.9558 36.28 28.844 36.3675 29.6512 36.7018C30.4584 37.0362 31.1483 37.6024 31.6337 38.3289C32.1191 39.0553 32.3782 39.9094 32.3782 40.7831C32.3782 41.3633 32.2639 41.9377 32.0419 42.4737C31.8199 43.0096 31.4945 43.4966 31.0843 43.9068C30.6741 44.317 30.1871 44.6424 29.6512 44.8644C29.1152 45.0864 28.5407 45.2007 27.9606 45.2007ZM35.6692 32.1945C35.0516 32.8126 34.2646 33.2336 33.4078 33.4043C32.5509 33.5751 31.6626 33.488 30.8553 33.1539C30.048 32.8198 29.3579 32.2539 28.8722 31.5276C28.3865 30.8013 28.1271 29.9473 28.1268 29.0736C28.1264 28.1999 28.3852 27.3457 28.8703 26.6191C29.3555 25.8924 30.0452 25.326 30.8523 24.9913C31.6594 24.6566 32.5475 24.5688 33.4045 24.739C34.2615 24.9091 35.0488 25.3295 35.6669 25.9471C36.0772 26.3572 36.4028 26.844 36.625 27.3799C36.8472 27.9158 36.9617 28.4902 36.9619 29.0703C36.9621 29.6505 36.8481 30.2249 36.6263 30.761C36.4045 31.297 36.0792 31.7842 35.6692 32.1945ZM44.0679 28.4454C43.1942 28.446 42.3399 28.1876 41.6131 27.7027C40.8862 27.2178 40.3195 26.5283 39.9846 25.7214C39.6496 24.9144 39.5615 24.0263 39.7313 23.1692C39.9011 22.3122 40.3212 21.5247 40.9386 20.9064C41.5559 20.2882 42.3428 19.8669 43.1996 19.6958C44.0563 19.5247 44.9446 19.6115 45.7521 19.9453C46.5595 20.279 47.2499 20.8447 47.7358 21.5708C48.2218 22.2969 48.4815 23.1508 48.4822 24.0245C48.4826 24.6047 48.3688 25.1792 48.1472 25.7153C47.9256 26.2514 47.6005 26.7387 47.1906 27.1492C46.7807 27.5597 46.294 27.8855 45.7582 28.1079C45.2224 28.3303 44.648 28.4449 44.0679 28.4454ZM52.659 31.7299C52.0405 31.1128 51.6189 30.3262 51.4475 29.4694C51.276 28.6127 51.3625 27.7244 51.696 26.9168C52.0294 26.1092 52.5949 25.4186 53.3208 24.9324C54.0467 24.4462 54.9005 24.1862 55.7742 24.1852C56.6479 24.1842 57.5023 24.4423 58.2293 24.9269C58.9563 25.4115 59.5233 26.1008 59.8586 26.9077C60.1938 27.7145 60.2823 28.6026 60.1128 29.4597C59.9433 30.3168 59.5235 31.1045 58.9063 31.7229C58.4966 32.1336 58.01 32.4596 57.4743 32.6822C56.9385 32.9048 56.3642 33.0197 55.7841 33.0203C55.204 33.021 54.6294 32.9073 54.0932 32.6859C53.557 32.4645 53.0696 32.1397 52.659 31.7299ZM60.8385 44.5368C59.9648 44.5381 59.1103 44.2803 58.3832 43.796C57.656 43.3117 57.0887 42.6226 56.7532 41.8159C56.4176 41.0092 56.3288 40.1211 56.498 39.2639C56.6671 38.4067 57.0867 37.619 57.7036 37.0002C58.3205 36.3815 59.107 35.9596 59.9636 35.7879C60.8203 35.6161 61.7087 35.7023 62.5164 36.0354C63.3241 36.3686 64.0149 36.9338 64.5013 37.6595C64.9878 38.3852 65.2482 39.2389 65.2495 40.1127C65.2513 41.2843 64.7875 42.4086 63.9603 43.2383C63.1331 44.068 62.0102 44.5351 60.8385 44.5368Z" fill="#CB0404"/>
<path d="M16.6903 52.374C16.641 51 16.2635 49.6579 15.5895 48.4597C14.9154 47.2614 13.9644 46.2419 12.8158 45.4864C11.5158 44.6516 9.98903 44.2405 8.44568 44.3096C6.90233 44.3787 5.41837 44.9246 4.19819 45.8722C3.08788 46.7428 2.20533 47.8698 1.62624 49.1565C1.04715 50.4431 0.788796 51.8511 0.873342 53.2595C1.06307 57.1678 7.65706 63.7565 8.97702 65.7384L9.00865 65.7859C9.07075 65.8842 9.15799 65.9641 9.26133 66.0173C9.36468 66.0705 9.48038 66.0952 9.59645 66.0887C9.71253 66.0822 9.82475 66.0448 9.9215 65.9803C10.0183 65.9159 10.096 65.8267 10.1468 65.7221L10.1736 65.6714C11.2952 63.5523 16.8802 56.2789 16.6903 52.3738L16.6903 52.374Z" fill="#CB0404"/>
<path d="M4.58483 43.7009C5.79419 42.8759 7.21973 42.4254 8.68353 42.4056C10.1473 42.3858 11.5845 42.7976 12.8158 43.5895C12.8691 43.6235 12.9197 43.6611 12.9721 43.6963C12.9995 43.3265 13.0241 42.9553 13.048 42.5858C13.2928 38.5741 13.3758 34.3547 13.2906 30.0459C13.2054 25.5796 12.9431 21.4739 12.4865 17.4971C12.2308 15.2728 11.9315 13.2166 11.571 11.2151C11.5098 10.8787 11.4464 10.54 11.3808 10.2035C11.3437 10.0178 11.3088 9.83419 11.2716 9.63535L11.1733 9.15903C11.0968 8.79415 11.0203 8.42924 10.9373 8.0687C10.6554 6.80357 10.4041 5.82685 10.1201 4.90257V4.90038C10.0518 4.68175 9.9314 4.48298 9.76924 4.32121C9.60709 4.15944 9.40804 4.0395 9.18924 3.97174C8.83342 3.86309 8.44903 3.90009 8.12047 4.07461C7.7919 4.24914 7.54603 4.54692 7.43683 4.90257C7.15497 5.82685 6.90151 6.80356 6.61965 8.06433C6.5366 8.43142 6.46013 8.79851 6.38365 9.16342L6.28314 9.6485C6.24819 9.83204 6.21323 10.0156 6.17825 10.1969C6.11269 10.5378 6.04716 10.8765 5.98816 11.2152C5.62763 13.2189 5.32609 15.2728 5.07044 17.4972C4.61596 21.4739 4.35157 25.5796 4.26855 30.0458C4.18334 34.3547 4.26417 38.574 4.5089 42.5858C4.53287 42.9575 4.55752 43.3292 4.58483 43.7009Z" fill="#CB0404"/>
</svg>
