<svg width="24" height="17" viewBox="0 0 24 17" fill="none" xmlns="http://www.w3.org/2000/svg">
<path fill-rule="evenodd" clip-rule="evenodd" d="M0 1.44157V15.0317C0 15.7711 0.541154 16.3703 1.2867 16.3703H22.4965C23.2413 16.3703 23.7832 15.7641 23.7832 15.0317V1.44157C23.7832 0.630216 23.2986 0 22.4965 0H1.2867C0.45367 0 0 0.645702 0 1.44157ZM1.95561 2.62533C1.95561 2.29784 2.15381 2.11043 2.47046 2.11043C2.66633 2.11043 10.3734 6.99407 10.8403 7.28052L12.0465 8.03068C12.4289 7.77443 12.8129 7.55534 13.2093 7.28979C14.0183 6.77263 21.2168 2.11043 21.415 2.11043C21.7324 2.11043 21.9298 2.29784 21.9298 2.62533C21.9298 2.97216 21.2617 3.31665 20.8266 3.58219C18.0929 5.24826 15.36 7.06448 12.6534 8.79248C12.4955 8.89932 12.1897 9.12778 11.9605 9.09293C11.705 9.05345 3.86245 4.01493 2.43561 3.1757C2.22116 3.04951 1.95561 2.93423 1.95561 2.62533Z" fill="white"/>
</svg>
