<svg width="62" height="61" viewBox="0 0 62 61" fill="none" xmlns="http://www.w3.org/2000/svg">
<path d="M59.4375 34.5C56.8125 33.625 55.0625 32.3125 55.0625 31C55.0625 29.6875 56.8125 28.1562 59.4375 27.5C60.5313 27.0625 61.1875 25.9687 60.9688 24.875C60.0938 20.9375 58.7813 17.4375 56.375 14.1562C55.7188 13.2812 54.625 12.8437 53.5313 13.5C51.125 14.8125 48.7188 15.0312 47.8438 14.1562C46.9688 13.2812 47.1875 10.875 48.5 8.46873C48.9375 7.37498 48.7188 6.28123 47.8438 5.62498C44.5625 3.43748 40.8438 1.90623 37.125 1.03123C36.0313 0.812482 34.9375 1.46873 34.5 2.56248C33.625 5.18748 32.3125 6.93748 31 6.93748C29.6875 6.93748 28.1563 5.18748 27.5 2.56248C27.0625 1.46873 25.9688 0.812482 24.875 1.03123C20.9375 1.90623 17.4375 3.21873 14.1563 5.62498C13.0625 6.06248 12.8438 7.37498 13.2813 8.24998C14.5938 10.6562 14.8125 13.0625 13.9375 13.9375C13.0625 14.8125 10.875 14.5937 8.25004 13.2812C7.15629 12.8437 6.06254 13.0625 5.40629 13.9375C3.21879 17.2187 1.68754 20.9375 0.812543 24.6562C0.593793 25.75 1.25004 26.8437 2.34379 27.2812C4.96879 28.1562 6.71879 29.4687 6.71879 30.7812C6.71879 32.0937 4.96879 33.625 2.34379 34.2812C1.25004 34.7187 0.593793 35.8125 0.812543 36.9062C1.68754 40.8437 3.00004 44.3437 5.40629 47.625C6.06254 48.5 7.15629 48.9375 8.25004 48.2812C10.6563 46.9687 13.0625 46.75 13.9375 47.625C14.8125 48.5 14.5938 50.9062 13.2813 53.3125C12.8438 54.4062 13.0625 55.5 13.9375 56.1562C17.2188 58.3437 20.9375 59.875 24.6563 60.75C25.75 60.9687 26.8438 60.3125 27.2813 59.2187C28.1563 56.5937 29.4688 54.8437 30.7813 54.8437C32.0938 54.8437 33.625 56.5937 34.2813 59.2187C34.5 60.0937 35.375 60.75 36.4688 60.75C36.6875 60.75 36.6875 60.75 36.9063 60.75C40.8438 59.875 44.3438 58.5625 47.625 56.1562C48.5 55.5 48.9375 54.4062 48.2813 53.3125C46.9688 50.9062 46.75 48.5 47.625 47.625C48.5 46.75 50.9063 46.9687 53.3125 48.2812C54.4063 48.7187 55.5 48.5 56.1563 47.625C58.3438 44.3437 59.875 40.625 60.75 36.9062C61.1875 36.0312 60.5313 34.9375 59.4375 34.5ZM31 46.3125C22.4688 46.3125 15.6875 39.5312 15.6875 31C15.6875 22.4687 22.4688 15.6875 31 15.6875C39.5313 15.6875 46.3125 22.4687 46.3125 31C46.3125 39.5312 39.5313 46.3125 31 46.3125Z" fill="#CB0404"/>
</svg>
