<svg width="45" height="45" viewBox="0 0 45 45" fill="none" xmlns="http://www.w3.org/2000/svg">
<path fill-rule="evenodd" clip-rule="evenodd" d="M16.0547 28.8176L19.6216 39.3246L21.416 33.0879L20.5371 32.123C20.1416 31.5434 20.0537 31.0371 20.2734 30.6005C20.7495 29.6577 21.7346 29.8338 22.6538 29.8338C23.6169 29.8338 24.8108 29.6503 25.1111 30.861C25.2136 31.2646 25.0855 31.6901 24.8035 32.123L23.9246 33.0879L25.719 39.3246L28.949 28.8176C31.2781 30.916 38.1738 31.3379 40.741 32.7724C41.554 33.2273 42.2864 33.8033 42.876 34.581C43.7695 35.766 44.3188 37.3105 44.469 39.2733L45.0037 42.6962C44.8718 44.0829 44.0881 44.8827 42.5391 45.0038H22.6685H2.4646C0.915527 44.8864 0.131836 44.0866 0 42.6962L0.534668 39.2733C0.684814 37.3105 1.23413 35.766 2.12769 34.581C2.71729 33.7996 3.44971 33.2236 4.2627 32.7724C6.82983 31.3379 13.7256 30.916 16.0547 28.8176ZM14.4397 13.7796C13.9966 13.798 13.6633 13.8897 13.4363 14.0438C13.3044 14.1318 13.2092 14.2456 13.147 14.3776C13.0774 14.5244 13.0481 14.7042 13.0518 14.9133C13.0701 15.5223 13.3887 16.3147 14.0002 17.2282L14.0076 17.2429L15.9998 20.42C16.7981 21.693 17.6367 22.9917 18.6768 23.9455C19.6765 24.8627 20.8923 25.4827 22.5 25.4864C24.2395 25.4901 25.5139 24.8444 26.543 23.8758C27.616 22.867 28.4656 21.4875 29.3005 20.1081L31.5454 16.4028C31.9629 15.4452 32.1167 14.8069 32.0215 14.429C31.9629 14.2052 31.7175 14.0952 31.3 14.0768C31.2122 14.0731 31.1206 14.0731 31.0254 14.0731C30.9265 14.0768 30.8203 14.0841 30.7104 14.0915C30.6519 14.0952 30.5933 14.0915 30.5383 14.0805C30.3369 14.0915 30.1318 14.0768 29.9231 14.0475L30.6921 10.6393C26.5869 10.5879 23.7781 9.8725 20.4565 7.74467C19.3652 7.04762 19.0356 6.24785 17.9443 6.32489C17.1204 6.48265 16.4282 6.85318 15.8752 7.44751C15.3479 8.01615 14.9487 8.79391 14.6887 9.78812L15.1245 13.8053C14.8828 13.82 14.6521 13.8127 14.4397 13.7796ZM32.0691 13.0643C32.6221 13.233 32.9773 13.5852 33.1201 14.1539C33.2812 14.7849 33.1055 15.669 32.5745 16.8797C32.5635 16.9017 32.5525 16.9237 32.5415 16.9457L30.271 20.6951C29.3958 22.1406 28.5059 23.586 27.3193 24.7013C26.0925 25.8533 24.5764 26.62 22.5073 26.6163C20.5737 26.6127 19.1199 25.8716 17.926 24.7783C16.7725 23.7218 15.8899 22.357 15.0513 21.0216L13.0591 17.8482C12.3303 16.7586 11.9531 15.7644 11.9275 14.9463C11.9165 14.5611 11.9824 14.2126 12.1216 13.908C12.2717 13.5852 12.4988 13.3174 12.8064 13.1119C12.9492 13.0166 13.1104 12.9322 13.2898 12.8661C13.1616 11.1455 13.1104 8.97368 13.1946 7.15768C13.2385 6.72845 13.3191 6.29554 13.4399 5.86264C13.949 4.03931 15.2271 2.57184 16.8091 1.56295C17.3657 1.20709 17.9773 0.913595 18.6218 0.678799C22.4487 -0.715298 27.5244 0.0441181 30.2417 2.9864C31.3477 4.18605 32.0435 5.77826 32.1936 7.88041L32.0691 13.0643Z" fill="#CB0404"/>
</svg>
