<svg width="80" height="82" viewBox="0 0 80 82" fill="none" xmlns="http://www.w3.org/2000/svg">
<g clip-path="url(#clip0_102_138)">
<path d="M37.25 23.2249V16.3829H72.1404V28.9543L75.5974 25.4971V16.3833V7.36234H72.1401H37.2496H33.7926V16.3833V18.1569C34.9867 19.2718 36.2203 20.8848 37.25 23.2249ZM54.695 10.3008C55.6497 10.3008 56.4235 11.0749 56.4235 12.0293C56.4235 12.9837 55.6497 13.7578 54.695 13.7578C53.7403 13.7578 52.9665 12.9837 52.9665 12.0293C52.9665 11.0749 53.7403 10.3008 54.695 10.3008Z" fill="#CB0404"/>
<path d="M72.1405 64.7483H37.25V52.1697C36.5926 52.5042 35.8509 52.694 35.0674 52.6947C34.9786 52.6947 34.8895 52.6906 34.7987 52.6866C34.4533 52.6663 34.117 52.6096 33.7926 52.5218V64.7483V68.2053H37.2496H72.1401H75.5974V64.7483V33.3176L72.1404 36.7747V64.7483H72.1405Z" fill="#CB0404"/>
<path d="M63.9472 57.8343C62.7886 57.8343 61.7241 57.4241 60.8899 56.7425L58.9346 60.3514L61.2221 59.7052L61.8899 61.9523L63.9465 58.156L66.0039 61.9523L66.6716 59.7052L68.9592 60.3514L67.0038 56.7425C66.1696 57.4241 65.1055 57.8343 63.9472 57.8343Z" fill="#CB0404"/>
<path d="M63.9469 57.1429C66.238 57.1429 68.0953 55.2856 68.0953 52.9945C68.0953 50.7034 66.238 48.8461 63.9469 48.8461C61.6558 48.8461 59.7985 50.7034 59.7985 52.9945C59.7985 55.2856 61.6558 57.1429 63.9469 57.1429Z" fill="#CB0404"/>
<path d="M66.4941 23.6103H43.505V25.3904H66.4941V23.6103Z" fill="#CB0404"/>
<path d="M66.4941 27.9919H43.505V29.7717H66.4941V27.9919Z" fill="#CB0404"/>
<path d="M66.4941 32.374H43.505V34.1538H66.4941V32.374Z" fill="#CB0404"/>
<path d="M53.0118 52.4246H43.505V54.2044H53.0118V52.4246Z" fill="#CB0404"/>
<path d="M53.0118 55.8816H43.505V57.6614H53.0118V55.8816Z" fill="#CB0404"/>
<path d="M55.433 49.5712L58.9778 48.4713L80 27.4491L77.5555 25.0045L56.5332 46.0271L55.433 49.5712Z" fill="#CB0404"/>
<path d="M19.941 46.5133H21.5435V77.7195C21.5435 80.0813 23.4577 81.9942 25.8182 81.9942C28.178 81.9942 30.0922 80.0813 30.0922 77.7195V43.8408V37.2941V25.8637C31.291 28.3181 32.5114 33.0208 32.5 41.3926C32.5 43.2993 32.4385 45.3931 32.3035 47.6918C32.2137 49.2168 33.377 50.526 34.9023 50.6151C34.9577 50.6178 35.0124 50.6198 35.0667 50.6198C36.5201 50.6191 37.7388 49.4855 37.8252 48.0156C37.9657 45.6187 38.0305 43.4175 38.0305 41.3926C38.0264 33.5596 37.0731 28.3721 35.6531 24.7834C34.2507 21.2093 32.2461 19.1921 30.3866 18.2698C29.2057 17.6749 28.1692 17.5403 27.5447 17.5325C27.5035 17.5308 27.4623 17.5264 27.4204 17.5264H18.2391C18.2405 17.602 18.2418 17.691 18.2422 17.8053C18.2368 19.1592 18.0876 23.1652 16.3726 27.7526L14.458 26.9464C16.0177 22.72 16.1724 18.9988 16.168 17.8053C16.168 17.6807 16.1666 17.5907 16.1649 17.5264H14.0641C13.8987 17.5264 13.7376 17.5436 13.5803 17.5723L13.5806 17.5754C12.5135 17.6957 11.5875 18.1138 10.7772 18.6489C9.82113 19.288 8.99605 20.1219 8.28304 21.107C6.86985 23.0728 5.88948 25.6862 5.88408 28.6577C5.8807 30.8821 6.46203 33.2936 7.8104 35.6062C9.15541 37.9221 11.2418 40.1253 14.1626 42.0779C14.6346 42.3939 15.1694 42.5458 15.698 42.5458C16.59 42.5458 17.4657 42.1144 17.9991 41.3177C18.8485 40.0483 18.5082 38.3306 17.2382 37.4812C14.8953 35.9113 13.4564 34.3118 12.5922 32.8264C11.7313 31.3369 11.4186 29.948 11.4153 28.6577C11.4139 27.4525 11.7043 26.3289 12.1482 25.3979C12.5847 24.4694 13.1911 23.7463 13.6664 23.3804C13.8136 23.2622 13.9395 23.1874 14.0354 23.1388L14.0992 23.9195C13.738 24.198 13.1836 24.8212 12.7738 25.6923C12.3356 26.6119 12.1057 27.6354 12.1067 28.657C12.1087 29.3369 12.2063 29.9988 12.3977 30.6529L13.6313 27.7239L24.3446 32.2349L18.5882 45.9015L7.87587 41.3913L9.07231 38.55C8.3583 37.7182 7.73476 36.8526 7.21182 35.9532C5.88709 33.6792 5.18891 31.1559 5.1933 28.6564C5.19735 25.7908 6.09603 22.9658 7.72124 20.7032C8.5065 19.6182 9.40518 18.7347 10.393 18.074C11.3771 17.4238 12.5138 17.0126 13.5236 16.8769L13.5239 16.8828C13.7004 16.8543 13.8797 16.8353 14.0641 16.8353H19.1219C17.2945 16.4453 14.1451 15.8482 12.1121 15.8767C11.5874 15.8842 11.1354 15.9323 10.8022 16.0376C8.61318 16.729 2.50534 20.8774 0.258289 33.1498C-1.43139 42.3774 5.52753 49.601 10.7009 50.8541V43.7058L11.3923 43.9968V53.9212V77.7195C11.3923 80.0813 13.3068 81.9942 15.667 81.9942C17.4927 81.9942 19.0473 80.847 19.6594 79.235C19.8387 78.7634 19.941 78.2539 19.941 77.7195V46.5133Z" fill="#CB0404"/>
<path d="M28.5203 7.77826C28.5203 3.48234 25.0377 0 20.7424 0C16.4461 0 12.9641 3.48234 12.9641 7.77826C12.9641 12.0742 16.4461 15.5565 20.7424 15.5565C25.0377 15.5565 28.5203 12.0742 28.5203 7.77826Z" fill="#CB0404"/>
<path d="M14.4569 30.6108L14.1449 31.3516L21.3906 34.4028L21.7026 33.662L14.4569 30.6108Z" fill="#CB0404"/>
<path d="M13.8296 32.0964L13.5184 32.8376L20.7678 35.8813L21.079 35.14L13.8296 32.0964Z" fill="#CB0404"/>
</g>
<defs>
<clipPath id="clip0_102_138">
<rect width="80" height="81.9941" fill="white"/>
</clipPath>
</defs>
</svg>
