<svg width="70" height="70" viewBox="0 0 70 70" fill="none" xmlns="http://www.w3.org/2000/svg">
<path d="M10.9375 27.125V35C10.9375 42.4375 21.4375 48.125 35 48.125C48.5625 48.125 59.0625 42.4375 59.0625 35V27.125C54.25 31.9375 45.5 35 35 35C24.5 35 15.75 31.9375 10.9375 27.125Z" fill="#CB0404"/>
<path d="M10.9375 44.625V52.5C10.9375 59.9375 21.4375 65.625 35 65.625C48.5625 65.625 59.0625 59.9375 59.0625 52.5V44.625C54.25 49.4375 45.5 52.5 35 52.5C24.5 52.5 15.75 49.4375 10.9375 44.625Z" fill="#CB0404"/>
<path d="M35 30.625C48.2894 30.625 59.0625 24.7487 59.0625 17.5C59.0625 10.2513 48.2894 4.375 35 4.375C21.7106 4.375 10.9375 10.2513 10.9375 17.5C10.9375 24.7487 21.7106 30.625 35 30.625Z" fill="#CB0404"/>
</svg>
