<svg width="70" height="70" viewBox="0 0 70 70" fill="none" xmlns="http://www.w3.org/2000/svg">
<path d="M6.5625 13.125V45.9375C6.5625 48.3438 8.53125 50.3125 10.9375 50.3125H59.0625C61.4688 50.3125 63.4375 48.3438 63.4375 45.9375V13.125C63.4375 10.7187 61.4688 8.75 59.0625 8.75H10.9375C8.53125 8.75 6.5625 10.7187 6.5625 13.125Z" stroke="#CB0404" stroke-width="2" stroke-miterlimit="10" stroke-linecap="round" stroke-linejoin="round"/>
<path d="M6.5625 41.5625H63.4375" stroke="#CB0404" stroke-width="2" stroke-miterlimit="10" stroke-linecap="round" stroke-linejoin="round"/>
<path d="M19.6875 63.4375H50.3125" stroke="#CB0404" stroke-width="2" stroke-miterlimit="10" stroke-linecap="round" stroke-linejoin="round"/>
<path d="M28.4375 50.3125C28.4375 54.9062 26.9062 60.375 24.5 63.4375" stroke="#CB0404" stroke-width="2" stroke-miterlimit="10" stroke-linecap="round" stroke-linejoin="round"/>
<path d="M45.5 63.4375C43.0937 60.375 41.5625 54.9062 41.5625 50.3125" stroke="#CB0404" stroke-width="2" stroke-miterlimit="10" stroke-linecap="round" stroke-linejoin="round"/>
<path d="M15.3125 19.6875L21.875 26.25L15.3125 32.8125" stroke="#CB0404" stroke-width="2" stroke-miterlimit="10" stroke-linecap="round" stroke-linejoin="round"/>
<path d="M28.4375 32.8125H37.1875" stroke="#CB0404" stroke-width="2" stroke-miterlimit="10" stroke-linecap="round" stroke-linejoin="round"/>
</svg>
