<svg width="70" height="70" viewBox="0 0 70 70" fill="none" xmlns="http://www.w3.org/2000/svg">
<path d="M52.8095 0.742188H17.1905C16.7029 0.74207 16.22 0.838025 15.7695 1.02457C15.319 1.21112 14.9097 1.4846 14.5649 1.82939C14.2201 2.17419 13.9466 2.58354 13.76 3.03405C13.5735 3.48457 13.4775 3.96743 13.4777 4.45504V28.1505C13.4777 32.7159 13.6581 37.275 14.0189 41.8278L15.9132 65.8371C15.9869 66.7684 16.4089 67.6377 17.0951 68.2717C17.7812 68.9056 18.6811 69.2577 19.6153 69.2578H50.3847C51.3189 69.2577 52.2188 68.9057 52.905 68.2717C53.5911 67.6377 54.0131 66.7684 54.0868 65.8371L55.9812 41.8278C56.3411 37.2786 56.5215 32.7196 56.5224 28.1505V4.45505C56.5226 3.96743 56.4266 3.48457 56.24 3.03405C56.0535 2.58353 55.78 2.17418 55.4352 1.82938C55.0904 1.48459 54.681 1.21111 54.2305 1.02456C53.78 0.838019 53.2971 0.742066 52.8095 0.742188ZM27.1493 60.5519C27.1489 60.681 27.0975 60.8047 27.0062 60.8959C26.9149 60.9872 26.7913 61.0386 26.6622 61.039H21.1037C20.9746 61.0386 20.8509 60.9872 20.7597 60.8959C20.6684 60.8047 20.617 60.681 20.6166 60.5519V54.9933C20.617 54.8643 20.6684 54.7406 20.7597 54.6493C20.8509 54.5581 20.9746 54.5066 21.1037 54.5063H26.6622C26.7913 54.5066 26.9149 54.5581 27.0062 54.6493C27.0975 54.7406 27.1489 54.8643 27.1493 54.9933V60.5519ZM27.1493 49.4348C27.1489 49.5639 27.0975 49.6876 27.0062 49.7789C26.9149 49.8701 26.7913 49.9216 26.6622 49.922H21.1037C20.9746 49.9216 20.8509 49.8701 20.7597 49.7789C20.6684 49.6876 20.617 49.5639 20.6166 49.4348V43.8763C20.6169 43.7473 20.6684 43.6236 20.7597 43.5323C20.8509 43.441 20.9746 43.3896 21.1037 43.3892H26.6622C26.7913 43.3896 26.915 43.441 27.0062 43.5323C27.0975 43.6236 27.1489 43.7473 27.1493 43.8763V49.4348ZM27.1493 38.3178C27.1489 38.4468 27.0975 38.5705 27.0062 38.6618C26.9149 38.753 26.7913 38.8045 26.6622 38.8048H21.1037C20.9746 38.8045 20.8509 38.753 20.7597 38.6618C20.6684 38.5705 20.617 38.4468 20.6166 38.3178V32.7592C20.617 32.6301 20.6684 32.5064 20.7597 32.4152C20.851 32.3239 20.9746 32.2725 21.1037 32.2721H26.6622C26.7913 32.2725 26.9149 32.3239 27.0062 32.4152C27.0975 32.5064 27.1489 32.6301 27.1493 32.7592V38.3178ZM38.2664 60.5519C38.266 60.681 38.2146 60.8047 38.1233 60.8959C38.032 60.9872 37.9083 61.0386 37.7793 61.039H32.2207C32.0917 61.0386 31.968 60.9872 31.8767 60.8959C31.7854 60.8047 31.734 60.681 31.7336 60.5519V54.9933C31.734 54.8643 31.7854 54.7406 31.8767 54.6493C31.968 54.5581 32.0917 54.5066 32.2207 54.5063H37.7793C37.9083 54.5066 38.032 54.5581 38.1233 54.6493C38.2146 54.7406 38.266 54.8643 38.2664 54.9933L38.2664 60.5519ZM38.2664 49.4348C38.266 49.5639 38.2146 49.6876 38.1233 49.7789C38.032 49.8701 37.9084 49.9216 37.7793 49.922H32.2207C32.0917 49.9216 31.968 49.8701 31.8767 49.7789C31.7855 49.6876 31.734 49.5639 31.7336 49.4348V43.8763C31.734 43.7473 31.7854 43.6236 31.8767 43.5323C31.968 43.441 32.0917 43.3896 32.2207 43.3892H37.7793C37.9083 43.3896 38.032 43.441 38.1233 43.5323C38.2146 43.6236 38.266 43.7473 38.2664 43.8763L38.2664 49.4348ZM38.2664 38.3178C38.266 38.4468 38.2146 38.5705 38.1233 38.6618C38.032 38.753 37.9083 38.8045 37.7793 38.8048H32.2207C32.0917 38.8045 31.968 38.753 31.8767 38.6618C31.7854 38.5705 31.734 38.4468 31.7336 38.3178V32.7592C31.734 32.6301 31.7855 32.5064 31.8767 32.4152C31.968 32.3239 32.0917 32.2725 32.2207 32.2721H37.7793C37.9083 32.2725 38.032 32.3239 38.1233 32.4152C38.2145 32.5064 38.266 32.6301 38.2664 32.7592L38.2664 38.3178ZM49.3835 60.5519C49.3831 60.681 49.3317 60.8047 49.2404 60.8959C49.1491 60.9872 49.0254 61.0386 48.8964 61.039H43.3378C43.2087 61.0386 43.0851 60.9872 42.9938 60.8959C42.9025 60.8047 42.8511 60.681 42.8507 60.5519V54.9933C42.8511 54.8643 42.9025 54.7406 42.9938 54.6493C43.0851 54.5581 43.2087 54.5066 43.3378 54.5063H48.8964C49.0254 54.5066 49.1491 54.5581 49.2404 54.6493C49.3317 54.7406 49.3831 54.8643 49.3835 54.9933V60.5519ZM49.3835 49.4348C49.3831 49.5639 49.3316 49.6876 49.2404 49.7789C49.1491 49.8701 49.0254 49.9216 48.8964 49.922H43.3378C43.2087 49.9216 43.0851 49.8701 42.9938 49.7789C42.9025 49.6876 42.8511 49.5639 42.8507 49.4348V43.8763C42.8511 43.7473 42.9025 43.6236 42.9938 43.5323C43.0851 43.441 43.2087 43.3896 43.3378 43.3892H48.8964C49.0254 43.3896 49.1491 43.441 49.2404 43.5323C49.3317 43.6236 49.3831 43.7473 49.3835 43.8763V49.4348ZM49.3835 38.3178C49.3831 38.4468 49.3317 38.5705 49.2404 38.6618C49.1491 38.753 49.0254 38.8045 48.8964 38.8048H43.3378C43.2087 38.8045 43.0851 38.753 42.9938 38.6618C42.9025 38.5705 42.8511 38.4468 42.8507 38.3178V32.7592C42.8511 32.6301 42.9025 32.5064 42.9938 32.4152C43.0851 32.3239 43.2087 32.2725 43.3378 32.2721H48.8964C49.0254 32.2725 49.1491 32.3239 49.2404 32.4152C49.3316 32.5064 49.3831 32.6301 49.3835 32.7592V38.3178ZM51.3807 24.0533H18.6194V5.88396H51.3806L51.3807 24.0533Z" fill="#CB0404"/>
<path d="M26.9384 17.4817C28.3262 17.4817 29.4513 16.3566 29.4513 14.9688C29.4513 13.5809 28.3262 12.4558 26.9384 12.4558C25.5505 12.4558 24.4254 13.5809 24.4254 14.9688C24.4254 16.3566 25.5505 17.4817 26.9384 17.4817Z" fill="#CB0404"/>
<path d="M35 17.4816C36.3879 17.4816 37.513 16.3565 37.513 14.9686C37.513 13.5808 36.3879 12.4557 35 12.4557C33.6122 12.4557 32.4871 13.5808 32.4871 14.9686C32.4871 16.3565 33.6122 17.4816 35 17.4816Z" fill="#CB0404"/>
<path d="M43.0615 17.4817C44.4494 17.4817 45.5745 16.3566 45.5745 14.9688C45.5745 13.5809 44.4494 12.4558 43.0615 12.4558C41.6737 12.4558 40.5486 13.5809 40.5486 14.9688C40.5486 16.3566 41.6737 17.4817 43.0615 17.4817Z" fill="#CB0404"/>
</svg>
