<svg width="80" height="80" viewBox="0 0 80 80" fill="none" xmlns="http://www.w3.org/2000/svg">
<path d="M66.2843 46.007L43.1528 50.3039C43.0397 50.3249 42.9247 50.3345 42.8096 50.3326C41.9648 50.3188 38.0351 50.3188 37.1903 50.3326C37.0752 50.3345 36.9602 50.3249 36.8471 50.3039L13.7156 46.007C13.5992 45.9853 13.4794 45.9902 13.3652 46.0213C13.2509 46.0524 13.1452 46.1089 13.0558 46.1865C12.9664 46.2641 12.8956 46.3609 12.8488 46.4696C12.802 46.5784 12.7803 46.6963 12.7854 46.8146L13.8486 71.6265C13.8561 71.8016 13.9218 71.9692 14.0353 72.1027C14.1488 72.2362 14.3036 72.328 14.4752 72.3636L37.1218 77.0594C37.3836 77.6002 37.7924 78.0565 38.3014 78.3758C38.8104 78.6952 39.3991 78.8647 40 78.865C40.6009 78.8647 41.1895 78.6952 41.6985 78.3758C42.2076 78.0565 42.6163 77.6002 42.8781 77.0594L65.5247 72.3636C65.6962 72.328 65.8511 72.2362 65.9646 72.1027C66.0781 71.9692 66.1438 71.8016 66.1513 71.6266L67.2145 46.8146C67.2195 46.6963 67.1979 46.5784 67.1511 46.4697C67.1042 46.3609 67.0335 46.2641 66.9441 46.1865C66.8547 46.1089 66.749 46.0524 66.6347 46.0213C66.5205 45.9903 66.4007 45.9853 66.2843 46.007Z" fill="#CB0404"/>
<path d="M32.0172 16.9874L32.405 17.2876V19.4084C32.4058 19.8144 32.5677 20.2034 32.855 20.4902C33.1424 20.777 33.5318 20.938 33.9377 20.938H37.6318C37.9868 20.9378 38.3308 20.8146 38.6051 20.5893C38.8794 20.364 39.0672 20.0506 39.1363 19.7024L39.5148 17.7568C39.8289 17.67 40.1592 17.6592 40.4782 17.7256L40.863 19.7025C40.9321 20.0506 41.1199 20.3641 41.3942 20.5894C41.6685 20.8147 42.0125 20.9379 42.3675 20.938H46.0616C46.2627 20.9383 46.4619 20.8989 46.6477 20.8222C46.8336 20.7455 47.0026 20.6329 47.1449 20.4908C47.2872 20.3488 47.4002 20.1801 47.4773 19.9943C47.5544 19.8086 47.5942 19.6095 47.5943 19.4084V17.2876L47.9853 16.9874C48.0295 16.952 48.0653 16.9073 48.0902 16.8565C48.1151 16.8057 48.1284 16.7499 48.1291 16.6934V16.0209C48.1283 15.9235 48.0891 15.8304 48.0199 15.7619C47.9508 15.6934 47.8574 15.6549 47.7601 15.6549H41.9577C41.6443 15.6499 41.3369 15.741 41.0768 15.9161C40.8167 16.0911 40.6166 16.3417 40.5032 16.6339C40.1707 16.587 39.8328 16.5933 39.5023 16.6527C39.4261 16.4456 39.3054 16.2577 39.1489 16.1022C38.853 15.8132 38.4551 15.6524 38.0416 15.6549H32.2393C32.1422 15.655 32.0492 15.6936 31.9806 15.7622C31.912 15.8308 31.8734 15.9238 31.8733 16.0208V16.6933C31.8734 16.7501 31.8864 16.806 31.9113 16.857C31.9362 16.9079 31.9724 16.9525 32.0172 16.9874ZM41.5855 16.8998C41.6278 16.8487 41.6808 16.8076 41.7409 16.7795C41.8009 16.7514 41.8664 16.7369 41.9327 16.7371H46.0616C46.1206 16.7368 46.179 16.7481 46.2336 16.7704C46.2882 16.7928 46.3379 16.8257 46.3797 16.8672C46.4216 16.9088 46.4548 16.9582 46.4775 17.0126C46.5002 17.0671 46.5119 17.1255 46.512 17.1844V19.4084C46.512 19.5278 46.4645 19.6424 46.3801 19.7269C46.2956 19.8113 46.181 19.8588 46.0616 19.8588H42.3675C42.2629 19.8588 42.1615 19.8222 42.081 19.7554C42.0005 19.6885 41.9458 19.5957 41.9265 19.4929L41.4917 17.272C41.4793 17.2069 41.4813 17.1398 41.4975 17.0755C41.5137 17.0112 41.5437 16.9513 41.5855 16.8998H41.5855ZM33.4873 17.1844C33.4874 17.1255 33.4991 17.0671 33.5218 17.0126C33.5445 16.9582 33.5777 16.9088 33.6196 16.8672C33.6614 16.8256 33.7111 16.7928 33.7657 16.7704C33.8203 16.7481 33.8787 16.7368 33.9377 16.7371H38.0666C38.1329 16.7369 38.1984 16.7514 38.2584 16.7795C38.3185 16.8076 38.3715 16.8487 38.4138 16.8998C38.4569 16.9505 38.4878 17.0104 38.504 17.075C38.5203 17.1395 38.5215 17.2069 38.5076 17.272L38.076 19.4928C38.0555 19.5957 38.0001 19.6883 37.9191 19.755C37.8382 19.8217 37.7367 19.8584 37.6318 19.8588H33.9377C33.8183 19.8588 33.7037 19.8113 33.6193 19.7268C33.5348 19.6424 33.4873 19.5278 33.4873 19.4084L33.4873 17.1844Z" fill="#CB0404"/>
<path d="M41.9284 23.85H38.0715C37.8994 23.8505 37.7345 23.9193 37.6131 24.0411C37.4916 24.163 37.4233 24.3281 37.4233 24.5002C37.4233 24.6722 37.4916 24.8373 37.6131 24.9592C37.7345 25.081 37.8994 25.1498 38.0715 25.1503H41.9284C42.1005 25.1498 42.2654 25.081 42.3869 24.9592C42.5084 24.8373 42.5766 24.6722 42.5766 24.5002C42.5766 24.3281 42.5084 24.163 42.3869 24.0411C42.2654 23.9193 42.1005 23.8505 41.9284 23.85Z" fill="#CB0404"/>
<path d="M27.6913 14.1785L29.3804 22.8867C29.8592 25.3517 31.1807 27.5734 33.1182 29.1707C35.0557 30.7681 37.4886 31.6417 39.9997 31.6417C42.5108 31.6417 44.9437 30.7681 46.8812 29.1707C48.8188 27.5734 50.1402 25.3517 50.6191 22.8867L52.1173 15.1669L52.3269 14.0784C52.6169 11.9324 52.2903 9.74812 51.3853 7.78077C50.4803 5.81341 49.0342 4.14417 47.2159 2.968C46.5627 2.54265 45.8665 2.18723 45.1389 1.90762C43.8246 1.39622 42.4266 1.13421 41.0163 1.13501H38.9832C37.355 1.13474 35.7457 1.48286 34.2632 2.156C32.7807 2.82914 31.4594 3.81171 30.388 5.03772C29.3167 6.26373 28.5201 7.7048 28.0517 9.26414C27.5833 10.8235 27.4541 12.465 27.6726 14.0784L27.6913 14.1785ZM31.3698 14.3943C36.4276 14.3943 40.9569 13.2057 44.0066 11.3289C45.6799 12.8019 47.6532 13.8938 49.7901 14.5288L48.2575 22.4269C47.8855 24.344 46.858 26.072 45.3514 27.3144C43.8447 28.5569 41.9526 29.2364 39.9997 29.2364C38.0469 29.2364 36.1548 28.5569 34.6481 27.3144C33.1414 26.072 32.114 24.344 31.742 22.4269L30.178 14.3724C30.5721 14.3881 30.9694 14.3943 31.3698 14.3943V14.3943Z" fill="#CB0404"/>
<path d="M42.7584 47.6724L61.745 44.1472L61.3477 39.2457C61.249 38.7807 61.0327 38.3487 60.7195 37.9911C60.4062 37.6336 60.0065 37.3623 59.5585 37.2032L49.5773 33.6561L39.9996 38.7328L30.4218 33.6561L20.4437 37.2032C19.9953 37.3621 19.5952 37.6333 19.2814 37.9909C18.9676 38.3485 18.7507 38.7805 18.6514 39.2457L18.2542 44.1471L37.2407 47.6723C38.2479 47.6599 41.7606 47.6599 42.7584 47.6724Z" fill="#CB0404"/>
</svg>
