<svg width="70" height="70" viewBox="0 0 70 70" fill="none" xmlns="http://www.w3.org/2000/svg">
<path d="M53.0359 20.7812H50.9141V26.25H53.0359V20.7812Z" fill="#CB0404"/>
<path d="M53.0359 36.0938H50.9141V41.5625H53.0359V36.0938Z" fill="#CB0404"/>
<path d="M49.8531 19.6875H54.0859V42.6562H55.1469V18.5938H48.7922V42.6562H49.8531V19.6875Z" fill="#CB0404"/>
<path d="M53.0359 28.4375H50.9141V33.9062H53.0359V28.4375Z" fill="#CB0404"/>
<path d="M19.0968 20.7812H16.975V26.25H19.0968V20.7812Z" fill="#CB0404"/>
<path d="M19.0968 36.0938H16.975V41.5625H19.0968V36.0938Z" fill="#CB0404"/>
<path d="M19.0968 28.4375H16.975V33.9062H19.0968V28.4375Z" fill="#CB0404"/>
<path d="M63.6344 55.7812V44.8438H32.8781V55.7812H30.7563V43.75C30.7563 43.4599 30.8715 43.1817 31.0766 42.9766C31.2817 42.7715 31.5599 42.6562 31.85 42.6562H46.6703V5.46875H29.6953V35C29.7357 35.1613 29.7389 35.3297 29.7044 35.4923C29.67 35.655 29.599 35.8077 29.4967 35.9387C29.3944 36.0698 29.2636 36.1759 29.1141 36.2488C28.9647 36.3217 28.8006 36.3596 28.6344 36.3596C28.4681 36.3596 28.304 36.3217 28.1546 36.2488C28.0052 36.1759 27.8744 36.0698 27.7721 35.9387C27.6698 35.8077 27.5987 35.655 27.5643 35.4923C27.5299 35.3297 27.533 35.1613 27.5734 35V5.46875H23.3297V55.7812H21.2078V18.5938H14.8531V55.7812H12.7313V44.8438H6.36563V55.7812H0V57.9688H70V55.7812H63.6344ZM15.9141 19.6875H20.1469V42.6562H15.9141V19.6875Z" fill="#CB0404"/>
</svg>
